<?xml version="1.0" encoding="UTF-8"?>
<svg id="Layer_1" data-name="Layer 1" xmlns="http://www.w3.org/2000/svg" version="1.1" viewBox="0 0 400 400">
  <defs>
    <style>
      .cls-1 {
        fill: #000;
        stroke-width: 0px;
      }
    </style>
  </defs>
  <path class="cls-1" d="M394.85,262.93c-.29-3.67.01-7.34-.06-11.01-.01-.76.02-1.52-.26-2.26-.05-.12-.1-.28-.05-.39.44-1.06-.14-2.02-.21-3.03-.21-3.06-.22-6.13-.4-9.19-.06-1-.08-2.03-.36-3.02-.45-1.62-.18-3.29-.26-4.94-.08-1.74-.37-3.44-.7-5.16-.3-1.57-.17-3.23-.5-4.82-.64-3.05-.55-6.19-1.26-9.25-.43-1.84-1.09-3.72-.8-5.72.15-1.02-.64-1.89-.74-2.9-.2-2.11-.98-4.1-1.18-6.23-.09-.95-.42-2.04-.79-3.02-.27-.74-.68-1.42-.55-2.27.03-.21-.06-.47-.17-.66-.7-1.24-.94-2.67-1.2-4-.44-2.17-1.69-4.05-1.96-6.26-.09-.77-.64-1.47-.95-2.23-.71-1.76-1.64-3.43-2.25-5.24-.18-.54-.57-1.02-.87-1.49-.57-.87-.86-1.86-1.5-2.7-1.16-1.55-2.09-3.27-3.2-4.87-1.2-1.73-2.58-3.34-3.79-5.04-.98-1.37-2.19-2.54-3.16-3.93-.87-1.24-2.12-2.34-3.29-3.43-.8-.74-1.53-1.58-2.28-2.4-.67-.74-1.26-1.61-2.16-2.12-.74-.42-1.23-1.11-1.79-1.69-1.28-1.35-2.63-2.63-4.05-3.82-.84-.7-1.59-1.53-2.56-2.11-.81-.49-1.35-1.36-2.16-1.94-1.32-.95-2.5-2.1-3.76-3.13-2-1.63-3.99-3.28-6.03-4.85-2.13-1.64-4.34-3.17-6.47-4.81-1.91-1.47-3.9-2.83-5.79-4.33-.9-.72-1.9-1.45-2.97-2.03-1.19-.65-2.27-1.52-3.37-2.35-1-.76-1.97-1.61-3.14-2.12-.91-.4-1.65-1.06-2.43-1.61-1.15-.81-2.32-1.62-3.48-2.38-1.6-1.06-3.2-2.11-4.77-3.2-2.12-1.48-4.4-2.71-6.41-4.37-.8-.66-1.88-1.04-2.7-1.76-1.12-.99-2.51-1.59-3.57-2.7-.6-.63-1.49-1.03-2.25-1.51-1.57-1-3.15-1.97-4.68-3.05-.93-.66-2.09-1.08-3.06-1.76-1.41-.99-2.9-1.91-4.39-2.68-1.45-.75-2.71-1.78-4.19-2.5-1.41-.69-2.83-1.42-4.22-2.15-1.59-.84-3.2-1.68-4.83-2.47-2.06-.99-4.06-2.1-6.15-3.04-1.88-.85-3.75-1.71-5.61-2.58-1.75-.82-3.64-1.34-5.28-2.42-.7-.46-1.63-.37-2.41-.81-1.8-1.01-3.96-1.11-5.72-2.3-.53-.36-1.32-.34-1.99-.5-.8-.18-1.57-.38-2.24-.92-.23-.19-.61-.24-.94-.27-1.47-.13-2.86-.52-4.16-1.23-.12-.06-.25-.16-.36-.15-1.7.16-3.22-.79-4.89-.83-.03,0-.07.01-.1,0-1.82-1.1-3.9-.69-5.86-.97-2.75-.38-5.51-.56-8.3-.31-2.1.19-4.19.65-6.32.46-1.43-.13-2.77.44-4.15.6-2.01.23-3.91,1.06-5.97.95-.51-.03-1.01.18-1.52.35-1.57.55-3.19.95-4.86,1.09-.92.08-1.76.33-2.64.61-1.31.42-2.62,1.1-4.08.94-.26-.03-.57-.02-.78.1-1.58.94-3.35,1.2-5.12,1.49-.65.11-1.26.46-1.9.68-1.01.35-1.95.86-3.1.79-.88-.06-1.54.74-2.41.94-.92.21-1.77.61-2.76.64-.64.02-1.24.53-1.88.75-1.96.69-3.96,1.24-5.93,1.93-1.79.62-3.49,1.59-5.44,1.74-.7.05-1.23.66-1.92.88-1.58.51-3.06,1.38-4.66,1.71-1.91.39-3.43,1.7-5.35,1.95-.57.08-.96.54-1.46.78-1.45.73-3.03,1.13-4.46,1.95-2.13,1.22-3.89,2.76-5.6,4.47-1.8,1.81-3.32,3.81-4.7,5.93-.64.98-1.12,2.1-1.79,3-.59.79-.78,1.74-1.44,2.48-.96,1.06-1.37,2.48-2.13,3.67-1.16,1.82-2.42,3.57-3.77,5.26-.78.97-1.39,2.12-1.49,3.49-.06.79-.6,1.49-.89,2.26-.55,1.48-1.13,2.96-1.72,4.43-.63,1.56-1.34,3.1-2,4.64-.89,2.1-1.89,4.16-2.75,6.27-.49,1.2-1.14,2.32-1.73,3.48-.87,1.72-1.83,3.38-3.11,4.84-.4.45-.22.93.39,1.16.61.23,1.22.47,1.83.7,1.61.6,3.09,1.43,4.07,2.89.86,1.29,1.27,2.65.63,4.24-.79,1.97-1.55,3.97-2.97,5.57-1.32,1.48-2.28,3.27-3.93,4.47-1.17.85-2.12,1.96-3.27,2.85-1.54,1.2-3.22,2.16-4.98,2.92-1.51.65-3.09,1.19-4.71,1.55-.34.08-.65.02-.98,0-.44-.04-.91-.03-1.06.5-.16.55.06.98.56,1.25.92.5,1.92.82,2.83,1.35,2.1,1.22,4.36,1.17,6.72,1.05,2.51-.13,4.76-1.02,7.13-1.61,2.46-.61,4.62-1.92,6.98-2.7,1.55-.51,2.81-1.48,4.2-2.2,1.17-.61,2.47-1.27,3.5-2.27.83-.81,1.84-1.46,2.82-2.1.54-.35.91-.85,1.31-1.3,1.1-1.21,2.16-2.46,3.16-3.76,1.57-2.03,2.78-4.28,3.99-6.5,1.23-2.25,2.59-4.43,3.84-6.67.84-1.5,1.59-3.07,2.44-4.57.72-1.26,1.52-2.54,2.19-3.85.69-1.35,1.54-2.7,2.43-3.98,1.37-1.98,2.6-4.06,4.05-5.98,1-1.33,1.86-2.79,3.19-3.85.58-.46.91-1.16,1.44-1.71,1.78-1.87,3.71-3.56,5.88-4.94,1.15-.73,2.25-1.69,3.53-2.03,1.66-.44,3.08-1.6,4.74-1.73,1.9-.15,3.64-.86,5.49-1.18,2.6-.44,5.19-.24,7.77-.44,1.99-.15,3.97-.38,5.94-.65.82-.11,1.66-.11,2.45-.12,1.4,0,2.63-.87,4.05-.64.17.03.4-.07.56-.18,1.72-1.08,3.66-1.75,5.33-2.91.32-.22.52-.59.79-.88.43-.47.93-.78,1.6-.88.45-.06.75-.05.99.37.28.48.2.9-.16,1.25-2.18,2.06-4.61,3.7-7.51,4.64-3.43,1.1-6.92,1.35-10.48,1.34-2.51,0-5.02.23-7.53.62-1.99.31-3.96.92-6.02.84-1.35-.05-2.41.98-3.7,1.15-1.9.26-3.48,1.33-5.2,2.03-.93.38-1.78,1.08-2.56,1.74-1.13.94-2.29,1.87-3.38,2.85-1.14,1.02-2.08,2.26-3.06,3.46-1.69,2.08-3.29,4.22-4.84,6.42-.43.62-.95,1.19-1.19,1.91-.39,1.17-1.49,1.81-1.99,2.9-.39.83-.34,1.12.57,1.15,1.52.06,3.06.13,4.56-.07,1.33-.18,2.64-.06,3.95-.19,1.84-.18,3.67-.37,5.5-.56.73-.08,1.47.15,2.17.05,2.2-.3,4.5-.69,6.36-1.83,2.56-1.57,4.85-3.62,6.38-6.3.33-.58.72-.9,1.3-1.1.31-.1.63-.32.9.02.26.32.42.71.2,1.11-1.03,1.86-2.26,3.57-3.76,5.11-.87.89-1.89,1.51-2.89,2.13-1.36.83-2.83,1.84-4.34,1.99-2.67.27-5.25,1.02-7.95,1.19-4.19.27-8.38.43-12.57.37-2.24-.03-2.17,0-3.13,1.95-.89,1.8-1.9,3.55-2.95,5.27-.39.64-.65,1.34-1.02,1.99-.93,1.63-1.71,3.39-2.77,4.9-1,1.43-1.31,3.33-2.89,4.35-.12.08-.24.27-.24.42-.02.47-.72.91-.37,1.23.45.41,1.06-.15,1.36-.43,1.19-1.11,2.64-1.82,4.03-2.57,1.25-.68,2.39-1.7,3.9-1.83.6-.05.94-.57,1.46-.78,1.59-.64,3.1-1.57,4.75-1.95,1.94-.45,3.71-1.37,5.66-1.72.32-.06.65.02.98-.01.91-.1,1.78-.23,2.66-.6,1.18-.49,2.53-.44,3.8-.45,5-.06,10.01.14,15.01-.1,7.15-.36,14.29-.31,21.44-.31,3.64,0,7.28.03,10.92-.17.92-.05,1.85,0,2.77.06.91.07,1.69-.21,2.16-.94,1.06-1.66,2.53-2.99,3.49-4.76.69-1.27,1.74-2.35,2.6-3.54.95-1.31,2.1-2.44,3.07-3.72.57-.76,1.28-1.39,1.96-2.06.69-.68,1.26-1.5,1.97-2.17,1.27-1.19,2.41-2.56,3.82-3.54,1.42-.98,2.8-2.07,4.33-2.89.65-.35,1.29-.65,2.04-.3.58.26.59.76.26,1.12-.5.55-1.03,1.09-1.74,1.44-2.12,1.05-3.97,2.45-5.61,4.19-.68.72-1.42,1.49-2.33,2.03-.72.44-1.06,1.31-1.6,1.96-.51.6-1.04,1.18-1.59,1.73-.98.96-1.67,2.16-2.58,3.16-1.51,1.64-2.62,3.58-4.13,5.21-.44.48-.78,1.06-1.11,1.63-.22.38.04.62.38.77.44.19.91.15,1.37.1,2.42-.28,4.85-.56,7.26-.86.61-.08,1.18.15,1.77.11,1.19-.07,2.34-.29,3.51-.54,2.14-.45,4.3-.94,6.48-.96,1.77-.01,3.27-.9,4.96-1.14,2.25-.33,4.42-1.02,6.53-1.9.71-.3,1.51-.43,2.22-.81.55-.29,1.27-.25,1.56.39.31.69-.18,1.19-.81,1.46-1.32.54-2.61,1.28-3.98,1.51-1.88.32-3.57,1.18-5.41,1.55-.57.11-1.18.08-1.77.1-.67.02-1.31.14-1.88.52-.24.16-.5.29-.83.26-.84-.09-1.62.2-2.43.36-1.05.21-2.07.46-3.21.35-1.4-.14-2.77.37-4.16.63-2.16.41-4.4.38-6.59.68-2.15.29-4.29.08-6.44.2-3.29.18-6.6.24-9.88.56-1.05.1-2.08.11-3.13.15-12.18.5-24.36.15-36.55.29-1.76.02-3.54.08-5.3.48-.94.21-1.97.05-2.95.08-.66.02-1.27.18-1.87.52-.88.49-1.95.63-2.9.79-1.3.22-2.46.76-3.68,1.14-1.36.43-2.7.98-4.02,1.56-2.49,1.11-4.85,2.48-7.28,3.69-.94.47-1.84,1.16-2.72,1.82-.52.39-1,.85-1.69.99-.18.04-.37.17-.5.3-1.61,1.69-3.65,2.84-5.36,4.4-.79.73-1.34,1.7-1.81,2.67-.98,1.98-2.1,3.91-2.59,6.1-.43,1.91-.68,3.8.57,5.58.37.53.65,1.19.8,1.88.18.8.84,1.26,1.5,1.59,1.02.51,2.08.93,3.15,1.32.87.31,1.45-.29,1.26-1.21-.48-2.28.12-4.25,1.32-6.26,1.34-2.25,3.34-3.75,5.27-5.31,1.34-1.08,3.05-1.71,4.63-2.47,2.41-1.16,5.06-1.63,7.63-2.25,1.91-.46,3.92-.17,5.86.33,2.12.55,3.76,1.64,4.73,3.66.49,1.03.57,2.18.63,3.26.11,1.66.16,3.36-.2,5.02-.06.29-.23.58.08.82.34.26.68.17,1.02,0,1.11-.55,2.31-.98,3.52-1.11,1.73-.18,3.24-1,4.89-1.37.44-.1.87-.26,1.35-.18,1.17.19,2.13-.57,3.18-.87,1.9-.55,3.84-.62,5.75-.82,3.83-.41,7.65-.9,11.52-.74,2.2.09,4.35.48,6.53.67,1.5.13,3.02.47,4.54.21.19-.03.4-.03.59,0,1.51.33,3.15.3,4.55.8,2.05.74,4.33.52,6.22,1.51,1.43.75,3.12.48,4.42,1.4,1.33.95,3.11.86,4.37,1.99.47.42,1.29.22,1.82.66,1.31,1.1,2.98,1.54,4.46,2.29,1.97,1,3.86,2.16,5.83,3.12,2.02.99,4,2.07,5.82,3.33,2.04,1.41,4.25,2.51,6.26,3.97,1.3.94,2.77,1.76,4.16,2.64,2.41,1.52,4.85,2.99,7.06,4.84.82.69,1.87,1.16,2.8,1.74,1.13.69,1.98,1.86,3.37,2.12,1.3.24,2.38,1.18,3.78,1.18.39,0,.82.25,1.17.48,1.61,1.03,3.59,1.17,5.18,2.26.67.46,1.59.29,2.35.65,1.94.94,4.09,1.3,6.16,1.71,2.07.41,4.13,1.16,6.29.92,3.08-.34,6.12.33,9.19.38,4.77.08,9.54,0,14.3.11,1.63.04,3.22-.18,4.81-.5.58-.12,1.13.02,1.54.47.29.32.16.66-.01,1.01-.19.37-.52.56-.87.57-3.03.1-6,.83-9.05.65-1.98-.12-3.97.1-5.95-.15-.16-.02-.33,0-.5.02-1.13.1-1.15.2-.83,1.25.38,1.25.94,2.41,1.13,3.77.17,1.26.79,2.58,1.22,3.86.05.16.17.31.17.46,0,1.64.38,3.21.87,4.77.12.38.09.83.22,1.25.35,1.13.69,2.24.57,3.47-.13,1.33.54,2.56.65,3.87.17,1.96.29,3.93.56,5.87.45,3.19.37,6.38.34,9.58,0,.9-.12,1.78-.29,2.65-.37,1.94-.13,3.98-.65,5.86-.52,1.89-.25,3.93-1.22,5.71-.11.2-.15.44-.17.67-.04.44.06,1.11-.37,1.2-.68.13-1-.65-1.49-1.01-.41-.3-.21-.68-.08-1.07.83-2.41,1.6-4.83,1.42-7.44-.02-.33-.05-.69.06-.98.62-1.62.54-3.3.55-4.99,0-3.28-.11-6.56.08-9.84.04-.65-.15-1.25-.31-1.84-.6-2.2,0-4.53-.65-6.68-.66-2.17-1.02-4.39-1.35-6.59-.31-2.08-1.26-3.97-1.54-5.99-.32-2.28-1.32-4.33-1.76-6.55-.17-.85-.89-1.55-1.78-1.52-2.22.07-4.43-.22-6.64-.24-1.57-.01-3.1-.13-4.61-.66-.66-.23-1.44-.21-2.17-.18-1.97.07-3.79-.44-5.57-1.23-.38-.17-.83-.22-1.26-.24-1.26-.08-2.38-.55-3.43-1.22-.22-.14-.49-.31-.72-.29-.8.06-1.46-.26-2.11-.64-1.6-.94-3.5-1.14-5.07-2.18-.8-.53-1.87-.23-2.8-.27-2.18-.08-4.37,0-6.56-.03-2.74-.03-5.46-.35-8.19-.54-2.85-.2-5.61-1.02-8.48-1.09-1.19-.03-2.43-.41-3.61-.85-.83-.31-1.72-.4-2.61-.51-1.56-.2-3.16-.35-4.56-1.22-.08-.05-.18-.11-.27-.1-1.38.1-2.66-.35-3.87-.9-1.79-.81-3.85-.79-5.53-1.94-.77-.52-1.83-.23-2.69-.77-1.7-1.08-3.72-1.45-5.56-2.22-1.77-.74-3.5-1.57-5.21-2.41-2.29-1.12-4.62-2.17-6.82-3.55-1.37-.86-2.9-1.57-4.32-2.41-2.33-1.36-4.63-2.8-6.82-4.37-2.12-1.53-4.46-2.79-6.35-4.63-1-.97-2.24-1.59-3.21-2.57-.77-.78-1.67-.69-2.56-.37-.95.33-1.9.54-2.9.47-.88-.06-1.53.54-2.32.73-1.35.32-2.66.76-4.09.92-1.1.12-2.24.76-3.39,1.09-.6.17-1.18.36-1.83.31-.32-.02-.68.05-.96.19-1.64.79-3.37,1.15-5.17,1.38-1.29.16-2.55.67-3.81,1.07-.7.23-1.39.36-2.12.33-.26-.01-.52.04-.78.07-1.26.15-2.47.62-3.66.94-2.35.64-4.77.12-7.05.78-1.63.47-3.24-.07-4.85.26-1.87.38-3.63-.46-5.46-.59-.44-.03-.97-.24-1.29.19-.34.46-.09,1.04.17,1.4.76,1.08,1.25,2.23,1.63,3.5.23.77.93,1.41,1.22,2.21.57,1.58,1.36,3.08,2.09,4.57,1,2.04,1.42,4.36,2.88,6.19.45.57.48,1.34.84,2,.88,1.6,1.68,3.29,2.36,4.97,1.02,2.5,2.45,4.8,3.35,7.33.85,2.4,2.22,4.54,3.13,6.88.6,1.54,1.26,3.08,2.01,4.5,1.05,1.99,1.76,4.12,2.79,6.11.64,1.24,1.33,2.55,1.74,3.93.23.76.75,1.35,1.01,2.09.69,1.97,1.69,3.82,2.53,5.73.62,1.42,1.27,2.86,2.06,4.23.4.7.94,1.45.96,2.31.02.77.66,1.18.94,1.79.68,1.46,1.29,2.96,1.93,4.42.71,1.62,1.77,3.1,2.19,4.85.15.62.58,1.13.84,1.74.92,2.2,2.08,4.31,2.94,6.53.78,2,1.72,3.92,2.68,5.8,1.04,2.04,1.94,4.15,2.89,6.22,1.26,2.76,2.67,5.46,3.76,8.31.6,1.56,1.47,3.04,2.19,4.57.37.78.12,1.28-.46,1.9-.7.74-1.42,1.51-1.88,2.47-.53,1.11-1.54,1.85-2.23,2.85-1.42,2.07-2.95,4.06-4.55,6.01-1.42,1.74-2.76,3.56-4.07,5.37-.9,1.25-1.86,2.46-2.83,3.65-1.06,1.31-1.79,2.89-3.21,3.9-.42.3-.41.85-.69,1.26-1.36,1.97-3.05,3.68-4.39,5.66-1.33,1.97-2.75,3.89-4.28,5.7-1.52,1.79-2.79,3.77-4.33,5.56-1.59,1.84-3.08,3.79-4.49,5.77-1.19,1.66-2.56,3.17-3.76,4.8-1.14,1.54-2.14,3.19-3.32,4.72-1.45,1.88-3.08,3.63-4.42,5.59-1.59,2.33-3.35,4.53-5.05,6.76-.9,1.17-1.79,2.36-2.71,3.52-1.27,1.6-2.48,3.24-3.72,4.86-.33.43-.15.97-.36,1.42-.1.2-.1.48-.39.52-.27.04-.43-.17-.55-.36-.14-.22-.29-.47-.3-.71-.04-.91-.4-1.63-.97-2.35-2.22-2.82-4.4-5.67-6.47-8.61-1.69-2.39-3.59-4.64-5.26-7.04-1.23-1.75-2.57-3.43-3.75-5.22-.81-1.22-1.9-2.32-2.76-3.54-.79-1.12-1.68-2.16-2.46-3.29-1.42-2.06-2.95-4.03-4.47-6.02-1.32-1.72-2.61-3.46-3.86-5.24-1.18-1.69-2.63-3.2-3.75-4.92-.83-1.28-1.8-2.44-2.65-3.7-.94-1.41-2.03-2.71-3.01-4.1-.84-1.19-1.84-2.25-2.58-3.53-.68-1.17-1.67-2.17-2.5-3.26-1.08-1.41-2.2-2.81-3.21-4.27-1.28-1.85-2.72-3.58-4.06-5.38-1.25-1.67-2.53-3.32-3.78-4.99-.26-.35-.24-.83-.05-1.14.69-1.11,1.02-2.41,1.8-3.47.11-.16.22-.34.27-.52.73-2.72,2.11-5.17,3.16-7.75.83-2.04,1.77-4.04,2.58-6.09,1.05-2.67,2.1-5.34,3.38-7.91,1.36-2.72,2.3-5.62,3.66-8.35.7-1.41,1.18-3,1.79-4.49.39-.96,1.05-1.84,1.32-2.8.46-1.6,1.47-2.96,1.86-4.55.27-1.11.89-2.02,1.36-3.01.04-.08.17-.15.17-.22.02-1.85,1.77-3.01,1.93-4.84.05-.54.56-1.03.76-1.58.79-2.18,1.9-4.23,2.56-6.47.12-.4.42-.74.58-1.12,1.09-2.51,2.1-5.06,3.28-7.53,1.18-2.48,2.15-5.04,3.23-7.57,1.1-2.59,2.11-5.23,3.32-7.76.93-1.95,1.66-3.98,2.53-5.94,1.11-2.51,2.12-5.07,3.2-7.59,1.27-2.95,2.6-5.86,3.89-8.8,1.11-2.54,2.19-5.1,3.28-7.65.84-1.99,1.61-4.02,2.52-5.98,1.37-2.95,2.44-6.04,4-8.91.38-.7.19-.97-.6-1.04-1.14-.11-1.82.83-2.77,1.14-.43.14-.82.31-1.31.34-1.12.05-2.08.71-3.08,1.11-1.49.6-3.08.67-4.58,1.22-.82.3-1.8.31-2.7.47-.45.08-.88.14-1.36.09-.61-.06-1.22.16-1.57.79-.96,1.74-2.24,3.26-3.55,4.72-1.76,1.96-3.39,4.04-5.37,5.8-.95.84-1.95,1.65-2.84,2.53-.72.71-1.54,1.3-2.24,2.02-.4.41-.77.92-1.44.98-.12,0-.26.09-.34.18-2.16,2.51-5.14,3.93-7.83,5.71-1.1.73-2.38,1.26-3.75,1.6-.97.24-1.92.68-2.93.95-.9.24-1.74.47-2.68.32-1.4-.23-2.83.37-4.24-.05-1.21-.36-2.44-.66-3.65-1.05-1.38-.45-2.65-1.01-3.92-1.68-1.21-.63-2.13-1.53-2.93-2.59-.08-.1-.13-.26-.23-.32-1.23-.67-1.2-1.85-1.28-3-.06-.92-.11-1.86-.27-2.77-.28-1.64.28-3.01,1.26-4.26,1.09-1.39,2.54-2.35,3.88-3.46,1.26-1.04,2.34-2.3,3.47-3.49,1.32-1.39,2.77-2.71,3.88-4.26.74-1.03,1.68-1.89,2.35-2.96.84-1.36,1.96-2.51,2.88-3.81,1.25-1.77,2.74-3.37,3.87-5.21,1.32-2.14,2.98-4.04,4.24-6.21.44-.77.96-1.45,1.47-2.16.23-.32.54-.67.18-1.06-.31-.34-.63-.1-.99.02-.52.18-1.08.33-1.62.32-2.76-.05-5.46.33-8.17.76-1.75.28-3.56.15-5.34.25-3.01.18-6.03.29-9.03.11-1.95-.11-3.95-.08-5.81-.88-.5-.21-1.03-.21-1.56-.24-1.58-.07-3.06-.46-4.47-1.23-.54-.3-1.35-.11-1.88-.42-2.42-1.43-4.93-2.81-6.46-5.3-1.2-1.97-1.72-4.04-.76-6.37.58-1.4,1.11-2.77,2.19-3.88.55-.57,1.24-1.02,1.86-1.38,1.61-.93,3.1-2.2,5.11-2.32.65-.04,1.12-.59,1.75-.79,1.55-.49,3.22-.35,4.73-.88,2.55-.89,5.23-1,7.84-1.18,1.79-.12,3.67-.33,5.5.02.13.02.27.05.39.01.42-.12,1.04.07,1.19-.5.15-.6-.45-.73-.84-.93-1.72-.87-3.27-1.99-4.83-3.13-2.07-1.51-4.01-3.1-5.71-5-1.61-1.81-2.13-4.01-2.31-6.36-.13-1.64.47-3.18.38-4.8-.03-.53.34-1,.61-1.44,1.36-2.19,3.22-3.86,5.62-4.81,1.2-.48,2.57-.33,3.81-.27,1.74.09,3.58-.19,5.23.68,1.86.99,3.97,1.18,5.93,1.82,2.11.7,4.31.88,6.46,1.37.75.17,1.47.6,2.22.67,5.72.5,11.15,2.69,16.95,2.84,1.5.04,3.07,0,4.5.31,2.36.53,4.81.31,7.12,1.18.89.34,1.98.38,2.95.27,2.14-.25,4.2.26,6.27.56,2.63.38,3.74-.08,4.93-2.43.74-1.46,1.82-2.7,2.65-4.11.46-.78.75-1.64,1.28-2.4,1.28-1.85,2.2-3.93,3.55-5.76,1.45-1.96,2.74-4.05,4.48-5.77,2.17-2.14,4.4-4.26,7.27-5.4,1.29-.51,2.47-1.39,3.8-1.62,1.73-.29,3-1.67,4.8-1.74.61-.02,1.08-.76,1.8-.91,2.16-.45,4.05-1.68,6.23-2.13.65-.14,1.28-.59,1.94-.86.74-.3,1.45-.5,2.26-.58.97-.09,1.74-.84,2.7-1.1.6-.16,1.14-.44,1.8-.42.76.02,1.32-.56,2-.78,1.58-.53,3.23-.85,4.77-1.47,2.02-.82,4.2-1.07,6.19-1.97.09-.04.18-.12.27-.12,1.84,0,3.41-.93,5.11-1.42.42-.12.86-.26,1.35-.13.32.09.76,0,1.06-.16,1.73-.96,3.64-1.08,5.51-1.48,1.69-.36,3.36-1.14,5.08-1.28,2.16-.18,4.21-.81,6.3-1.23,2.31-.46,4.68-.35,6.98-1.04,1.33-.4,2.87-.43,4.3-.43,1.83,0,3.58-.61,5.42-.44,2.95.27,5.95.27,8.81,1.04,2.18.59,4.52.39,6.59,1.37,1.58.76,3.42.5,4.96,1.33,1.83.98,4,.99,5.83,2.05.76.44,1.78.22,2.59.73,1.64,1.05,3.73,1.03,5.33,2.28.65.5,1.69.36,2.49.81,1.52.85,3.19,1.42,4.78,2.11,1.75.75,3.44,1.65,5.17,2.42,2,.89,4,1.83,5.94,2.86,2.72,1.44,5.49,2.78,8.14,4.34,1.31.77,2.65,1.59,3.97,2.28,1.23.64,2.29,1.54,3.6,2.08,1.23.51,2.28,1.48,3.47,2.17,1.91,1.12,3.82,2.26,5.63,3.53,1.94,1.37,3.95,2.64,5.83,4.09.9.69,1.92,1.25,2.85,1.92,1.33.97,2.67,1.93,4.03,2.84,1.62,1.08,3.29,2.09,4.9,3.18,1.29.86,2.47,1.89,3.8,2.67,1.81,1.06,3.44,2.36,5.18,3.5,1.96,1.28,3.93,2.55,5.76,4.03.86.7,1.92,1.2,2.81,1.92,1.13.92,2.4,1.65,3.55,2.57.91.73,1.93,1.43,2.92,2.1,1.13.77,2.26,1.61,3.35,2.47.91.72,1.77,1.51,2.77,2.16,1.6,1.04,3.03,2.36,4.55,3.54,1.55,1.21,3.2,2.32,4.55,3.75,1.4,1.48,3.16,2.51,4.55,4,.63.68,1.35,1.38,2.12,1.97,1.58,1.22,3,2.61,4.33,4.11.47.53,1.12.83,1.59,1.41.99,1.2,2.17,2.25,3.3,3.32,1.29,1.23,2.46,2.57,3.6,3.93,1.9,2.27,3.75,4.59,5.55,6.94,1.19,1.55,2.35,3.15,3.34,4.83,1.65,2.79,3.2,5.64,4.72,8.5.41.78.44,1.72.84,2.56.27.56.75,1.05.85,1.62.33,1.94,1.34,3.64,1.84,5.51.34,1.28.79,2.54,1.24,3.8.1.29.14.56.14.86.02.87.38,1.65.59,2.46.4,1.55,1.27,3.01,1.13,4.7-.03.39-.01.82.14,1.17,1.12,2.46,1.03,5.18,1.7,7.72.52,1.99.37,4.08,1.21,5.99.47,1.07-.06,2.23.2,3.34.12.5.15,1.02.35,1.52.34.82.38,1.7.37,2.59-.02,1.78.46,3.51.77,5.25.21,1.22-.03,2.42.1,3.64.16,1.51.65,2.96.71,4.44.07,1.55.25,3.09.29,4.64.05,1.94.47,3.84.56,5.77.07,1.45,0,2.91,0,4.36.02,2.09-.12,4.19.13,6.26.54,4.5.39,9.01.49,13.51,0,.2.05.39.11.58.13.45.12.91-.26,1.17-.39.27-.92.24-1.34.04-.43-.21-.49-.65-.47-1.11.03-.69,0-1.39,0-2.08ZM113.95,183.93c0-1.66,0-3.31,0-4.97,0-.45.03-1.11-.49-1.18-.64-.09-.56.63-.64,1.04-.26,1.34-.71,2.62-.87,4.01-.28,2.48-1.49,4.76-1.75,7.3-.2,1.93-1.25,3.74-1.33,5.74-.01.26-.03.57-.17.77-.89,1.24-.36,2.94-1.39,4.13-.08.09-.03.32,0,.48.11.92-.29,1.73-.48,2.59-.35,1.57-1.15,3.03-1.25,4.65-.04.74-.24,1.39-.48,2.08-.4,1.16-.8,2.37-.98,3.55-.22,1.4-.53,2.74-.88,4.1-.14.55-.1,1.19-.46,1.65-.34.43-.46.92-.41,1.39.11,1.06-.37,1.98-.6,2.96-.06.25-.19.49-.23.75-.23,1.57-.82,3.05-1.16,4.6-.2.91-.21,1.89-.63,2.73-.32.64-.6,1.28-.54,1.97.12,1.52-.57,2.86-1,4.21-.52,1.62-.73,3.29-1.14,4.92-.5,1.97-.99,3.97-1.5,5.93-.64,2.46-1.14,4.96-1.85,7.4-.49,1.67-1.39,3.36-1.05,5.25.03.14-.09.31-.16.45-.7,1.31-.74,2.83-1.36,4.16-.16.34-.11.78-.1,1.18.02,1.47-.75,2.74-1.09,4.11-.18.75-.53,1.47-.52,2.26,0,.67-.18,1.27-.38,1.89-.45,1.38-.96,2.77-1.15,4.2-.14,1.09-.25,2.12-.79,3.08-.06.11-.11.25-.1.38.11,1.55-.66,2.93-.92,4.41-.38,2.12-1.15,4.19-1.58,6.33-.4,2.02-1.05,4-1.52,6.01-.16.67-.14,1.37-.59,1.94-.14.18-.12.32,0,.53.91,1.74,2.41,3.03,3.49,4.66.69,1.05,1.65,1.99,2.45,3.03,2.24,2.93,4.6,5.78,6.85,8.7,1.1,1.43,2.29,2.79,3.16,4.39.27.49.73.79,1.32.71.47-.07.55-.54.5-.86-.29-1.81.94-3.35.84-5.13-.03-.52-.09-1.12.12-1.56.7-1.47.45-3.19,1.31-4.61.11-.19.17-.45.15-.67-.18-1.84.56-3.54.83-5.31.25-1.6.89-3.09.89-4.79,0-1.53.48-3.11,1.03-4.56.33-.86.53-1.68.49-2.56-.03-.68.11-1.3.37-1.92.58-1.41.41-3.03,1.17-4.4.16-.29.13-.72.1-1.08-.1-.94.19-1.81.41-2.71.4-1.71.71-3.43,1.25-5.11.2-.62-.24-1.31.09-1.94.8-1.53.54-3.34,1.32-4.88.17-.33.2-.8.13-1.17-.18-1.03.09-1.96.47-2.88.19-.46.32-.93.27-1.44-.07-.68.09-1.31.52-1.86.27-.35.44-.81.37-1.2-.35-1.83.6-3.44.8-5.19.19-1.72,1.14-3.34.91-5.17-.03-.2.13-.43.22-.64.65-1.53.49-3.29,1.31-4.78.07-.13.05-.34,0-.49-.2-.7-.05-1.4.16-2.04.67-2.07.85-4.18.74-6.34-.06-1.22-.17-2.44-.21-3.65-.1-2.94-.23-5.87-.42-8.8-.22-3.26-.24-6.53-.36-9.8-.09-2.67.33-5.37-.22-8.02-.35-1.7-.31-3.41-.36-5.09-.1-3.04-.44-6.07-.24-9.11,0-.1,0-.2-.01-.3-.21-2.22-.45-4.44-.6-6.66-.09-1.25-.02-2.51-.02-3.77ZM117.23,176.08c-.03-.88-.12-1.8-.83-2.51-.16-.17-.33-.37-.59-.31-.29.07-.42.33-.45.6-.09.76-.14,1.54.06,2.27.57,2.08.58,4.22.65,6.34.08,2.23.03,4.47.04,6.7.03,3.32.66,6.61.63,9.96-.03,3.17.05,6.34.16,9.5.08,2.04-.16,4.13.33,6.13.38,1.57.38,3.16.37,4.7,0,2.95.31,5.87.37,8.81.02,1.18-.21,2.39.03,3.53.51,2.41.25,4.85.38,7.27.05,1.01-.26,2.17.32,3,.71,1,1.56,1.92,2.29,2.92.76,1.03,1.66,1.96,2.28,3.07,1.04,1.88,2.52,3.46,3.59,5.33.58,1.02,1.45,2.04,2.29,2.99,1.18,1.34,1.94,3.02,3.13,4.4,1.13,1.31,2.07,2.77,3.1,4.16.92,1.25,1.81,2.52,2.75,3.75,1.04,1.37,1.89,2.87,2.98,4.21.77.95,1.35,2.1,2.11,3.03,1.56,1.9,2.84,4,4.38,5.9.5.62.65,1.62,1.56,1.83,1.8.4,3.3,1.44,4.91,2.22,1.61.78,3.32,1.29,4.88,2.21,1.07.63,2.22,1.24,3.39,1.66,1.69.6,3.22,1.5,4.89,2.14,1,.38,1.83,1.14,2.85,1.53.27.1.57.21.83-.05.15-.15.25-.32.16-.53-.32-.72-.53-1.53-1.01-2.13-1.41-1.77-1.82-4.01-2.9-5.95-.79-1.42-1.31-3.05-1.95-4.59-.98-2.37-2.27-4.6-3.17-7.03-.42-1.13-1.25-2.17-1.67-3.38-.4-1.17-1.07-2.21-1.51-3.38-.48-1.29-1.04-2.61-1.69-3.78-1.41-2.51-2.48-5.16-3.71-7.74-1.1-2.32-2.03-4.73-3.14-7.05-1.16-2.45-2.23-4.93-3.35-7.4-.23-.51-.63-.97-.73-1.5-.3-1.68-1.28-3.1-2.02-4.52-.99-1.89-1.89-3.85-2.73-5.78-1.19-2.72-2.45-5.43-3.59-8.18-.74-1.77-1.63-3.52-2.53-5.24-.37-.71-.38-1.52-.83-2.15-.96-1.38-1.55-2.94-2.13-4.47-.77-2.06-1.96-3.92-2.75-5.98-.57-1.5-1.36-2.97-2.06-4.45-.42-.87-.59-1.96-1.12-2.66-1.07-1.41-1.21-3.19-2.21-4.58-.5-.69-.58-1.63-1.02-2.28-.99-1.46-1.37-3.16-2.16-4.69-.62-1.19-1.12-2.49-1.79-3.63-.53-.9-1.15-1.8-1.74-2.7-.27-.42-.57-.9-.35-1.53ZM102.39,323.99c.09-.05.25-.11.37-.21.57-.48,1.2-.92,1.69-1.48,1.7-1.94,3.82-3.42,5.67-5.2,2-1.92,4.15-3.67,6.21-5.52,1.65-1.48,3.25-3,4.9-4.48,1.56-1.41,3.14-2.78,4.71-4.18.39-.35.58-.99,1.11-1.09,1.16-.21,1.75-1.2,2.4-1.91,1-1.08,2.02-2.07,3.18-2.98.66-.52,1.44-.95,1.95-1.61.71-.92,1.57-1.69,2.47-2.34.89-.65,1.53-1.52,2.42-2.18.9-.67,1.73-1.56,2.58-2.36,1.32-1.26,2.65-2.52,4.14-3.59.44-.32.79-.69.29-1.31-1.01-1.24-1.97-2.51-2.92-3.79-2.05-2.76-4.09-5.53-6.12-8.31-1.35-1.85-2.66-3.74-4.03-5.58-.72-.98-1.33-2.04-2.04-3-1.56-2.1-3.02-4.27-4.61-6.34-1.05-1.37-2.04-2.78-3.03-4.19-1.15-1.62-2.25-3.27-3.48-4.82-.55-.69-.93-1.51-1.66-2.06-.37-.28-.48-.19-.74.15-.41.53,0,1.1-.24,1.63-.92,2.08-.58,4.45-1.45,6.57-.21.52.05,1.3-.33,1.79-.61.79-.58,1.69-.53,2.55.03.59-.03,1.13-.21,1.64-.64,1.78-.6,3.74-1.39,5.47-.27.6.31,1.24.02,1.74-.87,1.52-.69,3.28-1.27,4.85-.25.69-.38,1.36-.3,2.11.07.72-.11,1.44-.37,2.12-.6,1.55-.37,3.32-1.33,4.77-.05.07-.05.2-.03.29.4,1.88-.55,3.58-.89,5.32-.46,2.29-.69,4.64-1.34,6.9-.58,2.03-.85,4.14-1.24,6.22-.31,1.67-.81,3.34-1.14,5-.37,1.84-.67,3.72-1,5.58-.2,1.14-.99,2.16-.81,3.37.25,1.73-.59,3.28-.94,4.87-.35,1.62-.47,3.33-1.05,4.91-.1.26-.12.61.4.67ZM58.81,130.89c.5,1.64-.63,2.63-1.99,3.36-1.17.62-2.48.96-3.68,1.52-1.19.56-2.53.36-3.7.84-1.63.67-3.36.89-5.05,1.11-2.18.28-4.39.25-6.58.57-1.82.27-3.7-.14-5.54.2-.24.04-.56-.02-.76-.16-.61-.42-1.28-.18-1.92-.24-.39-.03-.63.13-.67.54-.07.66-.22,1.34.08,1.96,1.02,2.14,2.67,3.8,4.69,4.88,1.42.76,2.81,1.68,4.56,1.89,1.59.19,3.11.93,4.69,1.23,1.15.22,2.38.01,3.56.15,2.33.27,4.66.45,7.01.28,2.54-.18,5.07-.47,7.61-.45,2.34.01,4.64.04,6.97-.41,2.56-.49,5.19-.64,7.76-1.07,1.6-.27,3.16-.76,4.73-1.18.66-.18,1.27-.48,2.02-.3.35.09.86.02,1.15-.18,1.74-1.19,3.88-1.18,5.76-1.99,1.96-.84,3.99-1.6,5.87-2.54,2.52-1.26,4.98-2.72,7.15-4.57.58-.5,1.18-1.14,1.42-1.84.71-2.08,1.87-3.94,2.9-5.85.53-.97.91-2.03,1.27-3.01.36-.98.98-1.83,1.28-2.83.29-.95.93-1.8,1.13-2.76.27-1.33.92-2.48,1.37-3.72.48-1.31,1.04-2.58,1.59-3.86.11-.25.12-.51-.1-.74-.23-.23-.54-.2-.74-.06-.65.46-1.49.56-2.11.97-1.25.84-2.75,1.21-3.95,2.1-.76.57-1.75.35-2.47.85-1.67,1.15-3.67,1.57-5.44,2.52-.46.25-1.08.1-1.5.44-1.43,1.14-3.34,1.09-4.87,2.07-1.15.74-2.65.65-3.91,1.36-1.61.91-3.57.87-5.28,1.63-1.22.54-2.64.51-3.84.95-1.89.68-3.74,1.3-5.76,1.3-.16,0-.36,0-.48.09-1.58,1.04-3.46.89-5.2,1.23-2.03.4-4.18.01-6.18.81-.36.14-.73-.06-1.03-.25-.58-.38-1.22-.13-1.83-.21-.23-.03-.63.21-.37.6.52.8.41,1.69.38,2.76ZM104.26,205.58c-.24-1.11.55-1.88.68-2.83.07-.52-.11-1.14.35-1.6.56-.57.58-1.32.53-2.04-.03-.48.03-.92.19-1.35.51-1.34.64-2.8,1.27-4.11.11-.23.13-.51.16-.77.2-1.89.72-3.71,1.4-5.46.44-1.14.18-2.45.91-3.5.05-.07.02-.2,0-.29-.04-.23-.09-.49-.37-.52-.37-.05-.39.28-.49.51-.13.3.2.7-.15.93-1.13.76-1.13,2.1-1.59,3.17-.63,1.49-1.23,3.01-1.82,4.53-.58,1.5-1.21,3-1.94,4.45-.29.57-.67,1.17-.81,1.72-.43,1.77-1.45,3.26-2.08,4.94-.7,1.88-1.61,3.72-2.39,5.59-.15.35-.54.65-.57,1-.17,1.76-1.26,3.16-1.92,4.7-.63,1.49-1.21,3.02-1.85,4.51-.28.64-.86,1.16-.93,1.79-.23,1.96-1.64,3.4-2.12,5.25-.26,1.01-.86,1.92-1.27,2.89-.7,1.64-1.36,3.29-2.07,4.92-.89,2.04-1.9,4.03-2.69,6.11-.67,1.76-1.42,3.49-2.17,5.21-.85,1.94-1.78,3.86-2.51,5.83-.66,1.8-1.58,3.48-2.23,5.29-.68,1.89-1.73,3.65-2.42,5.54-.67,1.83-1.49,3.6-2.3,5.36-.73,1.58-1.39,3.19-2.11,4.77-1.18,2.59-2.17,5.27-3.26,7.91-.2.48-.61.89-.72,1.37-.42,1.89-1.69,3.42-2.18,5.28-.28,1.04-.97,1.89-1.3,2.94-.48,1.54-1.18,3-1.85,4.47-.63,1.39-1.36,2.74-1.99,4.13-.22.47-.37,1.14.33,1.33.78.21,1.56.44,2.37.59,2,.36,4.05-.07,6.02.43,1.38.35,2.82.22,4.18.57,1.07.27,2.13.49,3.22.66,1.06.16,2.1-.15,3.16.06,1.37.28,1.58.07,1.83-1.31.07-.37.22-.76.43-1.07.36-.56.49-1.17.4-1.78-.06-.43.05-.82.2-1.14.68-1.46,1.04-3.07,1.26-4.58.41-2.78,1.57-5.34,1.9-8.14.16-1.38.51-2.85,1.2-4.16.19-.37.3-.83.29-1.24-.07-1.71.62-3.29,1.06-4.85.48-1.69.59-3.44,1.22-5.1.73-1.91.81-4.01,1.5-5.97.34-.96.78-1.96.91-2.91.18-1.33.32-2.61.74-3.91.5-1.57.95-3.15,1.15-4.85.26-2.16,1.31-4.21,1.62-6.43.31-2.21,1.28-4.26,1.62-6.5.27-1.78,1.13-3.48,1.37-5.26.21-1.63.91-3.11,1.08-4.73.06-.59.64-1.18.59-1.73-.17-1.62.76-2.96.94-4.48.13-1.09.99-2.02.83-3.2-.07-.51.16-.96.28-1.44.37-1.44.76-2.89,1.09-4.34.41-1.77.67-3.57,1.49-5.23.31-.62.3-1.34.34-1.94ZM112.03,367.03c.23.94.47,1.88.69,2.83.09.39.12.86.63.87.44,0,.52-.42.66-.76.62-1.54,1.1-3.13,1.68-4.68.67-1.79,1.41-3.56,2.06-5.36.25-.7.8-1.22.91-2,.28-1.87,1.28-3.5,1.91-5.24.91-2.52,1.98-4.99,2.92-7.51.63-1.69,1.44-3.31,2.02-5.04.67-2,1.51-3.96,2.23-5.96.3-.84.44-1.77.92-2.54.92-1.5,1.33-3.22,1.96-4.84.26-.67.77-1.21.89-1.9.34-1.93,1.56-3.53,2.02-5.43.27-1.12.98-2.12,1.29-3.24.15-.53.22-1.08.51-1.56.91-1.51,1.13-3.28,1.88-4.85.49-1.01.75-2.12,1.19-3.14.66-1.54,1.19-3.14,1.96-4.65.34-.67.86-1.41.87-2.19.01-.6.26-1.06.4-1.59.34-1.27,1.53-2.22,1.38-3.68,0-.08.09-.17.13-.26.7-1.56,1.41-3.13,2.11-4.69.15-.33.15-.65-.2-.87-.33-.2-.49.09-.65.28-1.46,1.72-3.25,3.12-4.91,4.62-1.93,1.75-3.85,3.54-5.93,5.14-2.5,1.93-4.59,4.31-6.98,6.37-1.98,1.71-3.82,3.62-5.92,5.19-.73.55-1.19,1.29-1.85,1.87-1.38,1.22-2.75,2.44-4.19,3.59-1.31,1.05-2.32,2.41-3.61,3.45-3.06,2.47-5.8,5.3-8.8,7.84-.88.75-.94,1.54-.48,2.42.78,1.49.78,3.19,1.37,4.75.84,2.2,1.14,4.6,1.94,6.82.63,1.75.66,3.61,1.33,5.34.48,1.25.92,2.52,1.09,3.91.23,1.93,1.66,3.61,1.4,5.69-.01.11.06.26.14.36.93,1.18,1.1,2.66,1.33,4.02.27,1.6.85,3.08,1.33,4.6.21.65.32,1.31.41,1.99ZM60.71,195.8c1.78.04,3.26-.29,4.74-.46,1.96-.24,3.37-1.4,4.99-2.14,1.24-.57,2.44-1.46,3.62-2.24,1.69-1.12,3.36-2.3,4.85-3.61,2.09-1.83,4.27-3.57,6.2-5.63,2.74-2.93,5.4-5.9,7.92-9.01.56-.69.43-1.15-.41-1.43-1.34-.45-2.83-.56-3.86-1.72-.06-.07-.18-.09-.27-.11-.84-.2-1.44-.78-2.02-1.35-2.19-2.16-2.06-4.95-1.5-7.55.46-2.17,1.69-4.14,2.89-6.08,1.63-2.63,3.51-5.04,5.51-7.37,1.11-1.29,2.34-2.47,3.51-3.7.2-.21.5-.42.22-.75-.19-.22-.46-.27-.72-.13-1.12.58-2.25,1.1-3.4,1.62-1.09.49-2.1,1.12-3.33,1.23-.39.03-.75.17-1.08.42-.83.63-1.87,1.04-2.82,1.02-1.59-.05-2.84.89-4.31,1.15-1.09.19-2.14.51-3.28.48-.52-.02-1.1-.06-1.56.42-1.32,1.37-2.07,3.11-3.11,4.66-.8,1.21-1.58,2.47-2.42,3.65-1.24,1.75-2.49,3.51-3.73,5.25-1.53,2.15-3.12,4.24-4.73,6.31-1.01,1.3-1.93,2.66-3.08,3.86-1.02,1.06-2.07,2.14-2.96,3.27-1.58,2-3.69,3.4-5.38,5.26-.58.64-1.43,1.18-2.04,1.89-.8.93-1.56,1.83-1.82,3.16-.49,2.54.75,4.35,2.35,5.89.89.85,1.96,1.7,3.22,2.09.76.23,1.39.9,2.11.99,1.98.23,3.89,1.14,5.68.69ZM117.58,365.74c.08.38.03.73.4.84.36.11.57-.11.7-.4.21-.46.57-.81.88-1.19,1.37-1.68,2.6-3.47,3.81-5.24,1.64-2.39,3.6-4.52,5.23-6.91.79-1.16,1.92-2.13,2.63-3.3,1.53-2.48,3.64-4.48,5.22-6.93,1.81-2.81,4.07-5.3,6.09-7.97,1.78-2.36,3.62-4.66,5.37-7.05,1.11-1.52,2.36-2.93,3.47-4.47,1.47-2.05,3.12-3.97,4.57-6.05,1.21-1.74,2.54-3.45,3.93-5.08.56-.66,1.11-1.36,1.6-2.1.83-1.27,1.96-2.31,2.81-3.59.84-1.25,1.83-2.43,2.8-3.61,1.45-1.75,2.54-3.8,4.22-5.39.48-.46.5-1.34,0-1.42-1.32-.22-2.27-1.16-3.43-1.63-2.14-.87-4.3-1.66-6.25-2.92-.16-.11-.36-.16-.55-.22-1.83-.62-3.56-1.5-5.28-2.36-.34-.17-.6-.52-1.01-.59-1.77-.32-3.18-1.46-4.82-2.09-.82-.32-1.12-.26-1.54.56-.2.39-.06.82-.36,1.21-.59.77-.72,1.77-1.16,2.64-.6,1.18-1.04,2.45-1.41,3.72-.31,1.07-.95,2.01-1.22,3.05-.24.95-.65,1.82-.93,2.74-.61,2.03-1.64,3.9-2.35,5.91-.53,1.52-1.09,3.05-1.72,4.55-.7,1.68-1.52,3.31-2.07,5.04-.3.95-.89,1.77-1.06,2.79-.19,1.17-1.16,2.17-1.31,3.29-.27,2.03-2.05,3.48-1.9,5.6-1.17,1.5-1.35,3.43-2.15,5.1-.27.58-.76,1.12-.82,1.72-.21,1.99-1.41,3.59-2.03,5.41-.77,2.28-1.55,4.59-2.68,6.75-.36.7-.27,1.51-.59,2.26-.52,1.2-1.59,2.19-1.47,3.66,0,.11-.12.23-.17.35-.74,1.8-1.54,3.57-2.17,5.41-.2.59-.72.98-.76,1.66-.07,1.19-.71,2.19-1.23,3.24-.5,1.02-.91,2.09-1.32,3.05ZM54.62,100.39c-1.39-.05-2.52.46-3.6.92-1.65.71-2.97,1.81-3.86,3.5-.79,1.51-1.5,2.96-1.42,4.71.06,1.22.17,2.35.83,3.48.92,1.58,1.87,3.06,3.3,4.24.83.68,1.77,1.27,2.46,2.07.73.83,1.68,1.37,2.53,1.93,1.39.92,2.85,1.8,4.27,2.68,1.08.67,2.24,1.17,3.33,1.82.49.29,1.18.35,1.74.12,1.02-.41,2.13-.39,3.14-.66,2.31-.63,4.75-.37,6.99-1.31,2.19-.91,4.69-.74,6.85-1.82.96-.48,2.14-.24,3-.73,1.83-1.05,3.97-1.1,5.81-2.05.9-.47,2.02-.52,2.82-.96,1.69-.92,3.6-1.2,5.26-2.14.41-.23.82-.62,1.3-.65,1.7-.1,2.9-1.4,4.49-1.83,1.65-.45,3.17-1.41,4.73-2.19.49-.25,1.39-.34,1.22-1.05-.15-.64-1-.53-1.57-.48-1.29.11-2.56.17-3.79-.32-.27-.11-.51-.24-.83-.28-2.02-.24-4.08.18-6.08-.47-1.2-.39-2.51-.03-3.7-.54-1.02-.44-2.08-.56-3.18-.62-.95-.05-1.9-.01-2.86-.15-2.33-.34-4.59-.96-6.9-1.36-.66-.12-1.28.11-1.96-.04-3.34-.73-6.7-1.41-10.07-2.01-.82-.15-1.57-.33-2.32-.7-.34-.17-.77-.23-1.16-.22-1.42.06-2.66-.56-3.95-.97-1.51-.48-3.01-1.05-4.56-1.37-.82-.17-1.54-.84-2.31-.56ZM107.46,358.29c-.01-1.81-.57-3.02-1.05-4.12-.69-1.58-.48-3.31-1.33-4.86-.93-1.7-.89-3.75-1.57-5.59-.7-1.89-.97-3.93-1.62-5.86-.67-2-.93-4.13-1.62-6.14-.08-.24-.2-.46-.22-.74-.09-1.21-.49-2.43-1.1-3.36-.83-1.26-1.86-2.42-2.78-3.65-1.15-1.54-2.43-2.98-3.61-4.5-1.09-1.41-2.01-2.97-3.21-4.28-1.75-1.94-3.18-4.11-4.84-6.12-1.14-1.37-2.19-2.81-3.3-4.21-.31-.39-.75-.58-1.24-.75-.93-.33-1.92,0-2.84-.32-1.6-.56-3.26-.79-4.93-.78-2.87.02-5.65-.47-8.42-1.12-.83-.2-1.7-.3-2.55-.35-.73-.05-1.03.44-.65,1,.63.92,1.29,1.81,1.99,2.68.79.99,1.67,1.93,2.45,2.93,1.55,1.98,2.76,4.18,4.42,6.09,1.35,1.57,2.59,3.26,3.72,5,1.42,2.18,3.11,4.15,4.63,6.26,1.04,1.45,2.09,2.91,3.17,4.34.82,1.09,1.71,2.12,2.44,3.3.56.91,1.33,1.75,2.01,2.61,1.21,1.56,2.35,3.18,3.54,4.76,1.74,2.3,3.58,4.52,5.22,6.88,1.66,2.39,3.46,4.66,5.17,7,1.03,1.41,2.07,2.81,3.13,4.19.74.96,1.39,1.99,2.11,2.96,1.01,1.35,2,2.72,2.95,4.11.63.92,1.18,1.91,2.07,2.62.24.19.47.43.77.16.25-.22.14-.5,0-.72-.26-.4-.37-.84-.44-1.3-.26-1.66-.87-3.23-1.34-4.84-.37-1.27-.85-2.51-1.12-3.29ZM186.44,173.98c0-.06,0-.12,0-.18-1.13,0-2.25-.01-3.38,0-1.39.02-2.77.04-4.16.11-.35.02-.75.11-.89.52-.11.32.05.64.31.78.87.46,1.59,1.14,2.4,1.68,1.09.73,2.25,1.36,3.23,2.21,1.79,1.53,3.84,2.67,5.76,3.99,1.33.92,2.72,1.75,4.12,2.56,1.04.61,2.04,1.35,3.1,1.82,1.43.64,2.75,1.46,4.12,2.17,1.55.81,3.11,1.72,4.7,2.35,1.74.69,3.41,1.55,5.19,2.15,1.58.52,3.16,1.14,4.66,1.83,1.14.52,2.35.66,3.48,1.17.8.36,1.6.86,2.51.94.63.05,1.22.21,1.82.36,1.24.31,2.32,1.11,3.6,1.23.85.08,1.65.25,2.47.48,1.09.3,2.18.71,3.27.89,1.63.28,3.29.53,4.93.76.81.11,1.72,0,2.42.33,1.29.6,2.6.64,3.95.59,2.29-.08,4.52.47,6.78.62,1.61.11,3.23.13,4.85.16.25,0,.55-.09.64-.38.07-.22.05-.44-.18-.62-1.33-.99-2.73-1.9-4.1-2.81-1.24-.81-2.45-1.73-3.81-2.39-.33-.16-.53-.7-.85-.76-1.23-.24-1.94-1.26-2.97-1.81-1.35-.71-2.58-1.65-3.84-2.53-1.12-.78-2.34-1.5-3.6-2.13-2.26-1.14-4.32-2.67-6.54-3.91-.91-.51-1.76-1.19-2.7-1.55-1.71-.66-3.13-1.85-4.86-2.44-.45-.15-.79-.63-1.28-.71-1.64-.28-2.9-1.4-4.4-2-1.5-.6-3.01-1.22-4.53-1.73-.79-.27-1.47-.94-2.37-.83-.69.08-1.27-.22-1.9-.39-1.2-.31-2.35-.82-3.54-1.07-1.3-.28-2.68-.11-3.99-.51-1.18-.36-2.45,0-3.61-.43-.68-.24-1.35-.52-2.08-.52-2.91,0-5.81,0-8.72,0Z"/>
</svg>